<svg xmlns="http://www.w3.org/2000/svg" viewBox="0 0 1434.66 1141.45"><defs><style>.cls-1{fill:#41bb91;}.cls-2{fill:#082432;}.cls-12,.cls-13,.cls-3{fill:none;stroke-miterlimit:10;}.cls-12,.cls-3{stroke:#000;}.cls-3{stroke-width:0.75px;}.cls-4{fill:#90b6e1;}.cls-5{fill:#517cbf;}.cls-6{fill:#fff;}.cls-7{fill:#ec856f;}.cls-8{fill:#ffde17;}.cls-9{fill:#f6bea3;}.cls-10{fill:#f2b4a3;}.cls-11{fill:#cde3f6;}.cls-13{stroke:#517cbf;}</style></defs><g id="Layer_2" data-name="Layer 2"><g id="Layer_1-2" data-name="Layer 1"><path class="cls-1" d="M151.33,832s-2.85-344.1,46.58-497c0,0,36.12,95.43,19,220.32S163.69,761.39,151.33,832Z"/><path class="cls-2" d="M217.34,552C198,590.74,175.19,643.5,153.15,711.41,150.92,781.89,151.33,832,151.33,832c12.36-70.65,48.48-151.77,65.59-276.65C217.07,554.25,217.19,553.13,217.34,552Z"/><path class="cls-1" d="M138.91,832S195,620.15,269.13,524.7c0,0,9.45,67.56-20,135.33S155.07,780.4,138.91,832Z"/><path class="cls-1" d="M167.06,832S155,575.55,39.83,403.59c0,0-18.25,85,52.14,234.88C148.12,758,167.06,832,167.06,832Z"/><path class="cls-3" d="M39.83,403.59S129.3,583.33,167.06,832"/><path class="cls-3" d="M197.91,335.07s-30.36,227.61-46.58,497"/><path class="cls-3" d="M269.13,524.7S199.74,646.33,138.91,832"/><polygon class="cls-4" points="81.89 757.32 114.21 1140.95 199.75 1140.95 232.07 757.32 81.89 757.32"/><polygon class="cls-5" points="138.91 1140.95 226.39 824.74 199.75 1140.95 138.91 1140.95"/><rect class="cls-4" x="514.17" width="406.31" height="776.55"/><rect class="cls-6" x="527" y="12.83" width="380.66" height="750.9"/><rect class="cls-4" x="712.52" y="5.34" width="9.62" height="765.86"/><rect class="cls-4" x="520.74" y="383.47" width="393.19" height="9.62"/><path class="cls-4" d="M1129.56,1027.94h9.62V116.1a37,37,0,0,0-37-37H1071.3A36.71,36.71,0,0,0,1045.16,90L985,150.14l6.8,6.8L1052,96.76a27.19,27.19,0,0,1,19.34-8h30.92a27.36,27.36,0,0,1,27.34,27.34Z"/><path class="cls-2" d="M1022.52,166.89,1005,234.77,910.25,140l67.88-17.51c7.92-2,20.74,4.44,30.34,14h0C1018.07,146.15,1024.56,159,1022.52,166.89Z"/><rect class="cls-2" x="989.15" y="119.22" width="43.51" height="29.77" transform="translate(201.26 754.1) rotate(-45)"/><rect class="cls-4" x="1096.84" y="880.72" width="72.68" height="260.24"/><polygon class="cls-5" points="1169.52 925.26 1169.52 1140.95 1133.18 1140.95 1169.52 925.26"/><polygon class="cls-4" points="499.77 846.27 462.2 846.27 417.34 1140.95 440.71 1140.95 499.77 846.27"/><polygon class="cls-4" points="597.94 846.27 560.38 846.27 545.51 1140.95 568.88 1140.95 597.94 846.27"/><polygon class="cls-2" points="630.67 846.27 668.24 846.27 683.11 1140.95 659.73 1140.95 630.67 846.27"/><polygon class="cls-4" points="720.49 800.5 758.05 800.5 811.28 1140.95 787.9 1140.95 720.49 800.5"/><polygon class="cls-2" points="462.2 846.27 459.12 866.53 495.71 866.53 499.77 846.27 462.2 846.27"/><polygon class="cls-2" points="720.49 800.5 733.56 866.53 768.38 866.53 758.05 800.5 720.49 800.5"/><path class="cls-4" d="M702.19,545c-31.25,84.53-61.56,184.61-80,206.14s-141.44,23.57-164,44.07-28.62,51.11-28.62,51.11h292a104,104,0,0,0,101.94-83.53l52.89-263.87c6.06-30.21-19.64-57.45-50.12-52.9C780.17,452.85,726.51,479.17,702.19,545Z"/><polygon class="cls-2" points="559.35 866.53 595.95 866.53 597.94 846.27 560.38 846.27 559.35 866.53"/><path class="cls-5" d="M682.75,812.8A132.25,132.25,0,0,0,812.43,706.53l32.92-164.21-1.46.28c-82.26,15.86-149.65,74.48-178.6,153.09-12,32.64-22.65,58-30.9,67.61-18.45,21.52-141.43,23.57-164,44.07-1.91,1.74-3.67,3.57-5.35,5.43Z"/><path class="cls-7" d="M518.56,376.55,445.73,568.84,506,629.15l67.66-126.3S564.79,453.26,518.56,376.55Z"/><path class="cls-1" d="M518.56,376.55c-20.09,4.4-64,172.11-64,172.11l77.22,71.15,62.64-133.87S560.82,367.29,518.56,376.55Z"/><path class="cls-2" d="M581.42,448.5l-71,151.64,21.35,19.67,62.64-133.87S589.66,469,581.42,448.5Z"/><path class="cls-6" d="M385.17,726,288.51,928.91,386.37,998,493.5,774.62s134,35.21,202.34,5.62c45-19.46,62-112.3,62-112.3H477.12A101.86,101.86,0,0,0,385.17,726Z"/><path class="cls-8" d="M385.17,726,288.51,928.91,386.37,998,493.5,774.62s134,35.21,202.34,5.62c45-19.46,62-112.3,62-112.3H477.12A101.86,101.86,0,0,0,385.17,726Z"/><path class="cls-1" d="M757.87,667.94H541.11s21.16-128.72,21.68-147.07-44.23-144.32-44.23-144.32l239.31-42.86S798.75,474,757.87,667.94Z"/><path class="cls-2" d="M757.87,333.69,744.2,428.08a991.41,991.41,0,0,1-13.05,239.86h26.72C798.75,474,757.87,333.69,757.87,333.69Z"/><ellipse class="cls-2" cx="337.61" cy="963.23" rx="20.99" ry="59.88" transform="translate(-645.08 687.33) rotate(-55)"/><path class="cls-2" d="M387.64,970.45c-7.53-10.48-19.31-21.6-33.17-31.3-15.18-10.63-30.72-18.18-43.76-21.25l.55-2.34c13.33,3.14,29.17,10.82,44.59,21.62,14.08,9.85,26.06,21.17,33.74,31.87Z"/><path class="cls-9" d="M374.89,500.43s12.49-10.37,33.65-14.78c0,0,81.25,111.76,97.43,143.5,0,0-18.46,30-50.83,25.57C416.35,649.43,374.89,500.43,374.89,500.43Z"/><path class="cls-9" d="M578.14,303.37l8.7,60.95S598,386,616.35,386c21.76,0,41.16-15.34,42.92-34.63L616.49,236.81Z"/><path class="cls-2" d="M616.35,400.41c-16.74,0-28.66-10.56-35.7-19.41l1.88-1.5c6.71,8.44,18,18.5,33.82,18.5,22.87,0,43.63-13.06,51.66-32.5l2.23.91C661.83,386.74,640.18,400.41,616.35,400.41Z"/><path class="cls-2" d="M446.35,461l-105-152.73c-15.87,33.4-13.21,59.83-13.21,59.83l105,152.73S430.48,494.44,446.35,461Z"/><path class="cls-6" d="M328.15,368.14l105.2,152.73a283.77,283.77,0,0,1,109.11-75.16L437.26,293A283.77,283.77,0,0,0,328.15,368.14Z"/><path class="cls-1" d="M355.34,370.32a264.5,264.5,0,0,1,74.27-51.15L510.5,436.6a307.2,307.2,0,0,0-74.27,51.16Z"/><path class="cls-8" d="M419.3,463.18l16.93,24.58A307.2,307.2,0,0,1,510.5,436.6l-68.1-98.86Z"/><path class="cls-9" d="M416.75,383.47l-38.37,23.32c3.65-12.31,7.59-26.21,8-30.3.86-7.8-5.38-12.31-5.38-12.31L359.29,408.5l-8.21,45.14,23.81,46.79,33.65-14.78c-.41-16.41-7-38.57-7-38.57s19.29-23.4,20.11-36.12S416.75,383.47,416.75,383.47Z"/><polygon class="cls-10" points="322.89 1044.41 362.99 981 305.81 940.96 279.25 1008.71 322.89 1044.41"/><path class="cls-1" d="M165.44,956.44s10.64-26.39,121.64,32.29l41.51,46.68s1.07,22.49-29.42,54.76Z"/><path class="cls-2" d="M165.44,956.44c-7.73,7.73,15.94,43.93,52.87,80.86s73.13,60.6,80.86,52.87-15.94-43.93-52.87-80.86S173.17,948.71,165.44,956.44Z"/><path class="cls-2" d="M307,1080.24c-6.82-23.2-34.27-54.1-56.1-75.93-6.52-6.53-40.42-39.73-67.07-52.65l1-2.17c27,13.09,61.16,46.54,67.73,53.12,22,22,49.75,53.26,56.71,76.95Z"/><path class="cls-7" d="M804.28,593.44l66.49-43.7a315.5,315.5,0,0,0-12-53.73l-79.7,28.32Z"/><path class="cls-9" d="M824.91,520.87c-45.43,0-157.29,56.26-157.29,56.26l17.64,39.68s129.6-7.94,164.87-28.22S875.7,520.87,824.91,520.87Z"/><path class="cls-1" d="M764.61,529.52c-27.33-70.53-51-189.59-6.74-195.83,30.54-4.31,81.68,63.58,117.83,156.16Z"/><path class="cls-2" d="M763.49,530c-13.55-35-29.88-92.13-31.35-138.26l2.4-.07c1.46,45.82,17.71,102.68,31.19,137.46Z"/><path class="cls-7" d="M585,351.53c34.45-29.78,28.68-71.79,28.68-71.79l.37-38.19-.33,0-35.59,61.77Z"/><path class="cls-9" d="M566.23,177.74c-56,5.73-74.94,62.6-48.49,121.67s56.43,43.2,77.59,16.75,30.15-73.05,20.28-102.27C605,182.59,579,176.43,566.23,177.74Z"/><path class="cls-2" d="M484.68,174.21c-21,10.68-33.5,52.9-13.67,74.06s45,10.45,66.57-8.38c17.35-15.11,29.09-35.7,29.09-35.7s5.37,24.59,22.49,37.47,39.67,28.2,39.67,28.2,11.15-56.35,7-77.13c-6.17-31.3-33.5-23.81-33.5-23.81s-8-20.33-29.09-18.07c-37,4-54.73,44.08-54.73,44.08S508,162.31,484.68,174.21Z"/><path class="cls-9" d="M621.34,612.4l-33.51,59.51s11.47,4.65,18.52-6.27,22.48-40,22.48-40Z"/><circle class="cls-2" cx="548.92" cy="263.86" r="4.89"/><path class="cls-2" d="M518.56,270a4.9,4.9,0,1,0,4.89,4.89A4.89,4.89,0,0,0,518.56,270Z"/><path class="cls-9" d="M601.06,258.72s-7.49-33.81,6.17-39.1,15.87,29.42,6.61,44.24Z"/><path class="cls-2" d="M606.35,665.64c7-10.92,22.48-40,22.48-40l-7.49-5.29-16.15,46.89A16.54,16.54,0,0,0,606.35,665.64Z"/><path class="cls-2" d="M537.32,312.58,537,310.2c.14,0,13.93-2.29,24.85-17.91l2,1.38C552.24,310.18,537.92,312.49,537.32,312.58Z"/><path class="cls-9" d="M646,693.73l-17.8-15a19.35,19.35,0,0,1-6.88-14.81V612.4l46.28-35.27,17.64,39.68-27.55,34.6S660.13,692.19,646,693.73Z"/><polygon class="cls-2" points="631.37 681.36 633.35 683.03 633.35 629.15 631.37 629.15 631.37 681.36"/><path class="cls-2" d="M645,692.89l1,.84a8,8,0,0,0,1-.2V642.15h-2Z"/><polygon class="cls-2" points="378.38 406.79 364.33 414.59 386.42 376.49 378.38 406.79"/><path class="cls-2" d="M419.31,391.68,391,411.11l1.13,1.64,27.68-19C419.66,393,419.49,392.34,419.31,391.68Z"/><path class="cls-2" d="M421.39,402.59l-26.51,23,1.29,1.5L421.61,405C421.56,404.21,421.48,403.4,421.39,402.59Z"/><path class="cls-2" d="M561.6,521c-.07-.52-7.1-52.58-31.58-107.8l2.2-1c24.63,55.55,31.7,107.93,31.76,108.45Z"/><polygon class="cls-10" points="457.43 954.98 457.43 1081.44 509.74 1081.44 517.67 954.98 457.43 954.98"/><polygon class="cls-2" points="457.43 1033.83 510.82 1064.27 517.67 954.98 457.43 954.98 457.43 1033.83"/><path class="cls-1" d="M530.27,1141H428.67c0-38.35,28.76-59.51,28.76-59.51h52.31S529.6,1107.89,530.27,1141Z"/><rect class="cls-2" x="429.27" y="1132.7" width="100.33" height="2.4"/><path class="cls-2" d="M490.69,780.47l2.81-5.85S576.38,796.39,645,791.3h0s-91.23-39.77-158.69-39.77Z"/><polygon class="cls-2" points="386.37 997.98 467.26 829.32 436.66 783.24 349.58 972.02 386.37 997.98"/><path class="cls-8" d="M431.58,806.29v217H541.11v-217a54.77,54.77,0,0,0-54.77-54.77h0A54.76,54.76,0,0,0,431.58,806.29Z"/><rect class="cls-2" x="431.58" y="1004.84" width="109.53" height="2.4"/><path class="cls-7" d="M527.43,297.8a31,31,0,0,0,8.91,2.36c4.1.24,5.13-4.64,5.13-4.64Z"/><rect class="cls-11" x="753.59" y="610.04" width="22.04" height="530.92"/><rect class="cls-11" x="1205" y="610.04" width="22.04" height="530.92"/><rect class="cls-11" x="709.94" y="598.73" width="560.74" height="22.61"/><path class="cls-5" d="M930.71,584.48h0A14.25,14.25,0,0,0,945,598.73H1134.8a14.25,14.25,0,0,0,14.26-14.25H930.71Z"/><path class="cls-4" d="M1217.66,385.56h0L1143,590.74h0a14.25,14.25,0,0,0,18.27-8.52l64.93-178.39A14.27,14.27,0,0,0,1217.66,385.56Z"/><path class="cls-4" d="M372.86,183.52V207a13.56,13.56,0,0,0,13.56,13.56h0A13.56,13.56,0,0,0,400,207v-23.5Z"/><path class="cls-8" d="M427,143.54a40.53,40.53,0,1,0-67.87,29.87,28.08,28.08,0,0,1,8.83,15l.24,1.22a11.59,11.59,0,0,0,11.35,9.27h13.83a11.58,11.58,0,0,0,11.35-9.27l.25-1.22a27.47,27.47,0,0,1,8.69-14.84A40.35,40.35,0,0,0,427,143.54Z"/><path class="cls-12" d="M386.42,114.34a29.2,29.2,0,0,0-29.2,29.2"/><line class="cls-13" y1="1140.95" x2="1434.66" y2="1140.95"/></g></g></svg>